<svg width="900" height="720" viewBox="0 0 900 720" fill="none" xmlns="http://www.w3.org/2000/svg">
  <rect width="900" height="720" rx="36" fill="#f4fbff"/>
  <ellipse cx="450" cy="604" rx="245" ry="42" fill="#0b4a8f" opacity="0.13"/>
  <path d="M247 182h316l92 63v310H339l-92-65V182z" fill="#ffffff" stroke="#b7d8f6" stroke-width="4"/>
  <path d="M563 182l92 63H339l-92-63h316z" fill="#eaf7ff" stroke="#b7d8f6" stroke-width="4"/>
  <path d="M339 245h316v310H339V245z" fill="#ffffff"/>
  <path d="M339 245h316v72H339V245z" fill="#004a9f"/>
  <path d="M247 182l92 63v310l-92-65V182z" fill="#dff2ff"/>
  <text x="385" y="296" font-family="Arial, sans-serif" font-size="34" font-weight="800" fill="#ffffff">VNSUS</text>
  <text x="383" y="383" font-family="Arial, sans-serif" font-size="50" font-weight="800" fill="#08345f">Neurocalm-M</text>
  <text x="386" y="428" font-family="Arial, sans-serif" font-size="25" font-weight="700" fill="#2474b7">Tablets</text>
  <circle cx="548" cy="478" r="54" fill="#e7f7ff" stroke="#00a6c8" stroke-width="5"/>
  <path d="M523 480c19-44 69-33 48 12-14 31-50 25-48-12z" fill="#004a9f" opacity="0.9"/>
  <rect x="179" y="486" width="112" height="40" rx="20" fill="#004a9f" transform="rotate(-18 179 486)"/>
  <rect x="235" y="486" width="56" height="40" rx="20" fill="#ffffff" transform="rotate(-18 235 486)" stroke="#b7d8f6"/>
</svg>
